<?xml version="1.0" encoding="utf-8"?>
<!-- Generator: Adobe Illustrator 27.7.0, SVG Export Plug-In . SVG Version: 6.00 Build 0)  -->
<svg version="1.1" id="Lag_1" xmlns="http://www.w3.org/2000/svg" xmlns:xlink="http://www.w3.org/1999/xlink" x="0px" y="0px"
	 viewBox="0 0 681.9 260.3" style="enable-background:new 0 0 681.9 260.3;" xml:space="preserve">
<style type="text/css">
	.st0{fill:#007136;}
	.st1{fill:#B2B2B2;}
	.st2{fill:#FFFFFF;}
	.st3{fill-rule:evenodd;clip-rule:evenodd;fill:#007136;}
	.st4{fill:#1E1E1C;}
</style>
<path class="st0" d="M37.3,232c-5.2,2.3-10.5,4.6-15.7,6.9c-6.2,2.8-12.3,5.9-18.6,8.6c-0.7,0.3-1.2,0.6-1.4,0.9h64.7
	c3.9-11,8.5-21.6,13.7-31.9c0.9-2.7,1.9-5.4,2.8-8c0,0,0,0,0,0c-4-2.3-7.6-4.4-11.2-6.5c-1-0.6-2.3-1.1-3-2
	c-1.3-1.6-2.3-3.5-3.4-5.3c-0.7-1.1-0.6-1.9,0.8-2.3c2.5-0.7,4.9-1.6,7.5-2.1c0.8-0.2,1.8,0.1,2.5,0.5c3.5,2.1,6.8,4.3,10.2,6.4
	c1.3,0.8,2.8,1.8,4.1,0.1c0.7-1,1.4-1.9,2.1-2.9c8.2-13.1,17.3-25.5,27.4-37.1c0.9-1.2,1.8-2.4,2.7-3.5c1.3-1.7,1.6-3.1-0.4-4.7
	c-1.6-1.2-3.1-2.5-4.4-4.1c-1.1-1.4-3.5-2.8-3.7-4.3c-0.3-3,0.2-6.1,0.5-9.5l0,0c4.3,1.5,8.5,1.4,11.6,4.7c2.3,2.5,4.7,4.8,7.2,7.1
	c8.1-8,16.6-15.6,25.6-22.6v-0.1h0.1c6.8-5.4,13.9-10.4,21.3-15.1c-2.3-3.9-4.4-7.8-6.5-11.8c-0.2-0.5-0.5-1.1-0.4-1.5
	c0.7-2.7,1.5-5.4,2.3-8.2c0,0,0,0,0,0c2.2,0.6,4.3,1.1,6.2,1.8c0.7,0.2,1.5,0.9,1.9,1.5c2.2,4,4.4,8,6.7,12
	c15-8.8,31-16.4,47.6-22.4v-59c-0.6-0.3-1.4-0.1-1.7,0.6c-0.8,1.6-1.7,3.3-2.6,4.9c-2.4,4.4-4.9,8.7-7.2,13.2c-3.1,6-6.1,12-9.1,18
	c-1.2,2.5-2.3,5.1-3.4,7.6c-1.5,3.4-4.1,4.7-7,3.4c-3.6-1.6-7.2-3.2-10.9-4.6c-5.3-2-10.6-3.7-15.9-5.6c-1.8-0.6-3.5-1.3-5.3-2
	c-4.6-1.8-9.2-3.6-13.8-5.4c-0.8-0.3-1.6-0.5-2.3-0.7c-0.8-0.2-1.7,0.3-1.9,1.1c-0.2,0.8-0.4,1.5-0.6,2.3c-1,4.1-2,8.2-3,12.3
	c-1.5,6.1-3.1,12.1-4.6,18.1c-1.9,7.8-3.6,15.7-5.4,23.9l0,0c-20.9-1.9-41.5-3.7-62.8-5.6c-0.8-0.1-1.5,0.6-1.4,1.5
	c2.6,19.5,5.1,38.9,7.7,58.2c0,0,0,0,0,0c-2.1,0.5-3.8,1-5.5,1.4c-5.4,1-10.8,1.9-16.1,3.1c-7.4,1.6-14.8,3.4-22.2,5l-14.8,3.3
	c-0.8,0.3-1.5,0.6-2.3,0.9c-0.8,0.4-1.1,1.3-0.8,2.1c0.3,0.7,2.9,6.5,4.7,10.3l1.8,3.7c3.2,7,6.3,14.1,9.4,21.2
	c2.5,5.6,5.1,11.3,7.7,17.1c0,0,0,0,0,0C44.8,228.6,41.1,230.3,37.3,232z"/>
<g>
	<path class="st1" d="M238,82.5c-76.6,28.3-137.4,89.2-165.5,165.8H238V82.5z"/>
	<rect x="89.4" y="201.2" class="st2" width="4.4" height="47.2"/>
	<rect x="124.4" y="155.5" class="st2" width="4.4" height="93"/>
	<rect x="158.9" y="123.2" class="st2" width="4.4" height="125.3"/>
	<rect x="174" y="117.8" class="st2" width="4.4" height="45.4"/>
	<rect x="202" y="96.6" class="st2" width="4.4" height="151.9"/>
	<rect x="166.8" y="116.5" class="st2" width="71.2" height="4.4"/>
	
		<rect x="176.9" y="104.2" transform="matrix(2.674267e-11 -1 1 2.674267e-11 15.8655 342.2602)" class="st2" width="4.4" height="117.9"/>
	<rect x="93.4" y="201.2" class="st2" width="91.3" height="4.4"/>
	
		<rect x="219" y="186.7" transform="matrix(7.405693e-12 -1 1 7.405693e-12 17.8034 424.7115)" class="st2" width="4.4" height="33.5"/>
	<rect x="184.7" y="163.2" class="st2" width="4.4" height="85.3"/>
</g>
<g>
	<path d="M280.9,39.2V53h-12.7v18.2h12.2V85h-12.2v31.7h-15.5V39.2H280.9z"/>
	<path d="M284.4,54.7h14.4v6.7c2.4-5,4.8-7.3,9-7.3V70c-3.9,0.3-6.5,1.3-8.7,3.3v43.4h-14.6V54.7z"/>
	<path d="M324.8,91.6v10.7c0,1.7,0.8,2.4,2.4,2.4h1.3c1.7,0,2.4-0.8,2.4-2.4v-5.9h13.9v7.4c0,9-4.5,13.5-13.5,13.5h-7.5
		c-9,0-13.5-4.5-13.5-13.5V67.5c0-9,4.5-13.5,13.5-13.5h7.5c9,0,13.5,4.5,13.5,13.5v24H324.8z M324.8,80.3h6V68.9
		c0-1.7-0.8-2.4-2.4-2.4h-1.1c-1.7,0-2.4,0.8-2.4,2.4V80.3z"/>
	<path d="M385,116.7h-14.4v-4.3c-3.2,2.9-6.5,5-10.8,5h-0.2c-6.4,0-10.2-3.7-10.2-10.7V64.8c0-7.1,3.8-10.7,10.2-10.7h0.2
		c4.3,0,7.4,1.8,10.6,4.3V38.1H385V116.7z M370.4,67.5c-0.9-0.3-2-0.7-3.5-0.7c-2.1,0-2.9,0.8-2.9,2.4v32.8c0,1.7,0.8,2.4,2.9,2.4
		c1.5,0,2.7-0.3,3.5-0.7V67.5z"/>
	<path d="M404,91.6v10.7c0,1.7,0.8,2.4,2.4,2.4h1.3c1.7,0,2.4-0.8,2.4-2.4v-5.9h13.9v7.4c0,9-4.5,13.5-13.5,13.5h-7.5
		c-9,0-13.5-4.5-13.5-13.5V67.5c0-9,4.5-13.5,13.5-13.5h7.5c9,0,13.5,4.5,13.5,13.5v24H404z M404,80.3h6V68.9c0-1.7-0.8-2.4-2.4-2.4
		h-1.1c-1.7,0-2.4,0.8-2.4,2.4V80.3z"/>
	<path d="M428.8,54.7h14.4v6.7c2.4-5,4.8-7.3,9-7.3V70c-3.9,0.3-6.5,1.3-8.7,3.3v43.4h-14.6V54.7z"/>
	<path d="M455.5,38.1h15.1v12.7h-15.1V38.1z M455.7,54.7h14.6v62h-14.6V54.7z"/>
	<path d="M495.7,69.3c0-1.7-0.8-2.4-2.4-2.4h-1.1c-1.7,0-2.4,0.8-2.4,2.4v32.8c0,1.7,0.8,2.4,2.4,2.4h1.2c1.7,0,2.4-0.8,2.4-2.4V89
		h14.3v14.8c0,9-4.5,13.5-13.5,13.5h-8c-9,0-13.5-4.5-13.5-13.5V67.5c0-9,4.5-13.5,13.5-13.5h7.9c9,0,13.5,4.5,13.5,13.5v12.8h-14.3
		V69.3z"/>
	<path d="M514.4,38.1h15.1v12.7h-15.1V38.1z M514.6,54.7h14.6v62h-14.6V54.7z"/>
	<path d="M533.8,93.3c0-6.9,2.1-9.7,8.2-11.8l12-4.1v-8.6c0-1.7-0.8-2.4-2.4-2.4h-0.9c-1.7,0-2.7,0.8-2.7,2.4v7.5h-13.5v-8.7
		c0-9,4.5-13.5,13.5-13.5h6.9c9,0,13.5,4.5,13.5,13.5v49.1h-14.2v-4.1c-3.4,2.9-6.3,4.8-10.7,4.8h-0.2c-6,0-9.4-3.5-9.4-10.1V93.3z
		 M553.9,104.2V89l-4.1,1.9c-1.5,0.8-2.1,1.4-2.1,3.4v8c0,1.7,0.8,2.4,2.8,2.4C551.8,104.7,553,104.5,553.9,104.2z"/>
	<path d="M611.5,39.2V53h-13.3v17.4h12.7v13.8h-12.7v18.6h13.5v13.8h-29V39.2H611.5z"/>
	<path d="M632.2,39.2v63.6h11.2v13.8h-26.7V39.2H632.2z"/>
</g>
<g>
	<path d="M667.8,62.1h-2l-0.7-4.5H660l-0.7,4.5h-2l4-24h2.5L667.8,62.1z M660.4,55.7h4.5l-2.3-14.2L660.4,55.7z"/>
	<path d="M663.4,86.3L663.4,86.3c-1.5,0-2.5-0.7-3.4-1.4v5H658V67.8h1.9V69c0.9-0.8,1.9-1.5,3.3-1.5h0.1c2.1,0,3.2,1.3,3.2,3.4v12
		C666.6,85,665.5,86.3,663.4,86.3z M662.8,69.5L662.8,69.5c-1,0-1.8,0.4-2.8,1.2v12.5c1,0.9,1.8,1.3,2.8,1.3h0.1
		c1.2,0,1.8-0.5,1.8-1.7V71.2C664.7,70,664,69.5,662.8,69.5z"/>
	<path d="M667.1,108.6v3.6c0,2.7-1.4,4.1-4.2,4.1h-0.8c-2.8,0-4.2-1.4-4.2-4.1v-4.9h2v5c0,1.4,0.8,2.1,2.2,2.1h0.6
		c1.5,0,2.2-0.7,2.2-2.1v-3.7c0-1.3-0.4-1.9-1.4-2.6l-3.5-2.6c-1.6-1.2-2.2-2.4-2.2-4.3v-3c0-2.7,1.4-4.1,4.2-4.1h0.6
		c2.8,0,4.2,1.4,4.2,4.1v4.2h-2v-4.3c0-1.4-0.7-2.1-2.2-2.1h-0.5c-1.5,0-2.2,0.7-2.2,2.1v3c0,1.3,0.4,1.9,1.4,2.6l3.5,2.6
		C666.5,105.6,667.1,106.7,667.1,108.6z"/>
</g>
<rect x="252.3" y="130.9" class="st3" width="414.4" height="7.8"/>
<path class="st2" d="M170.1,245.7c-1-9.6-2-18.8-3-28.2l8.4,1.9c2.5-11.4,5-22.6,7.6-34.3c-11,4.2-21.5,8.2-32.5,12.5
	c12.9-27.4,25.6-54.3,38.3-81.1l18.4,3c-13.2,21.2-26.2,42-39.4,63.2L209,166c0.2,0.2,0.2,0.2,0.3,0.3
	c-8.8,18.4-17.5,36.7-26.4,55.2l8.5,2.6C184.2,231.4,177.3,238.4,170.1,245.7z"/>
<path d="M170.1,245.7c-1-9.6-2-18.8-3-28.2l8.4,1.9c2.5-11.4,5-22.6,7.6-34.3c-11,4.2-21.5,8.2-32.5,12.5
	c12.9-27.4,25.6-54.3,38.3-81.1l18.4,3c-13.2,21.2-26.2,42-39.4,63.2L209,166c0.2,0.2,0.2,0.2,0.3,0.3
	c-8.8,18.4-17.5,36.7-26.4,55.2l8.5,2.6C184.2,231.4,177.3,238.4,170.1,245.7z"/>
<g>
	<path class="st4" d="M279,173.8c-2.7,0.4-3.2,0.8-4.6,4c-1.7,4-4.5,10.5-7.4,18.3h-1.4c-2.4-6.3-4.8-12.4-7.3-18.5
		c-1.2-3.1-1.6-3.4-4.5-3.9v-1.3h10.8v1.3c-2.9,0.4-3,0.8-2.1,3.1c1.4,3.7,3.5,9.2,5,13c1.8-4.4,3.5-9.2,4.7-12.6
		c0.8-2.5,0.5-3.1-2.5-3.5v-1.3h9.4V173.8z"/>
	<path class="st4" d="M282.5,197.9h-3l11.5-37.4h3L282.5,197.9z"/>
	<path class="st4" d="M318.3,195.6v-1.5c3.3-0.4,3.8-0.8,3.1-2.9c-0.7-2.1-1.7-4.9-2.9-8.1h-11.2c-0.8,2.4-1.6,4.6-2.3,6.8
		c-1.2,3.3-0.7,3.9,3.3,4.2v1.5h-11.5v-1.5c3.3-0.5,4.1-0.8,5.9-5.4l10.9-27.7l1.6-0.5c3.3,9.1,6.8,19.1,10.2,28.3
		c1.7,4.5,2.4,5,5.8,5.3v1.5H318.3z M313.1,167.3H313c-1.7,4.5-3.4,9.1-5,13.5h9.7L313.1,167.3z"/>
	<path class="st4" d="M346.9,178.7c-1-3.1-2.9-5.2-5.4-5.2c-2,0-3.4,1.6-3.4,3.6c0,2.4,2.1,3.6,4.5,4.6c4,1.6,6.7,3.5,6.7,7.2
		c0,4.8-4.5,7.3-8.7,7.3c-2.7,0-5.1-1-6.1-1.8c-0.4-0.7-0.8-4.3-0.8-6.2l1.4-0.3c1,3.5,3.3,6.5,6.5,6.5c2,0,3.7-1.5,3.7-3.7
		c0-2.3-1.5-3.6-4.2-4.8c-3.2-1.5-6.6-3.2-6.6-7.3c0-3.7,3.2-6.8,8-6.8c2.2,0,3.6,0.5,4.7,0.9c0.4,1.2,1,4.3,1.2,5.6L346.9,178.7z"
		/>
	<path class="st4" d="M363,172.4c0.8-0.4,1.6-0.5,2.2-0.5c5.6,0,10.4,4.9,10.4,11.1c0,7.8-6.2,13.3-13.3,13.3
		c-2.2,0-4.9-0.5-7.8-1.9V165c0-3.3-0.1-3.6-3.5-3.9v-1.2c2.5-0.3,5.7-1.2,7.7-1.8v16.3L363,172.4z M358.7,189.4
		c0,0.8,0.1,1.3,0.3,1.8c0.3,1.1,1.9,2.9,4.7,3c4.4,0,7.2-3.7,7.2-9.9c0-6-3.7-9.5-8.1-9.5c-1.5,0-3.2,0.4-4.1,1V189.4z"/>
	<path class="st4" d="M378.8,173.8c2.8-0.4,5.4-1.1,7.7-2.1v17.9c0,3.5-0.2,5.8-1.2,8.6c-1.8,5.3-5.2,9.3-6.4,10.3
		c-0.5,0.4-1,0.6-1.3,0.6c-0.7,0-1.9-1.1-1.9-2.3c0-0.6,0.3-1.1,1.1-1.2c1.7-0.4,3.1-1.1,3.8-2c0.6-0.8,1.1-2,1.3-3.8
		c0.3-2.3,0.5-5.4,0.5-10.2v-10.3c0-3.6-0.3-3.8-3.6-4.3V173.8z M381.4,164.6c0-1.6,1.2-2.7,2.7-2.7c1.4,0,2.6,1.2,2.6,2.7
		c0,1.4-1.2,2.7-2.6,2.7C382.7,167.3,381.4,166,381.4,164.6z"/>
	<path class="st4" d="M411.6,174.4c2.6,2.2,4.2,5.5,4.2,9.2c0,8.3-6.1,12.6-11.5,12.6c-2.3,0-4.3-0.6-6.1-1.6l-2.1,2.9l-1.3-1.2
		l2-2.7c-2.7-2.3-4.2-5.7-4.2-9.1c0-8.7,6.9-12.6,11.8-12.6c2.2,0,4,0.5,5.8,1.5l1.9-2.7l1.4,1L411.6,174.4z M408.5,175.9
		c-1-1.4-2.7-2.3-4.6-2.3c-3.5,0-6.5,3.4-6.5,9.7c0,2.8,0.6,5.2,1.6,7L408.5,175.9z M400.1,191.9c1,1.5,2.6,2.6,4.8,2.6
		c3.3,0,6.3-2.9,6.3-10.2c0-2.5-0.5-4.8-1.6-6.7L400.1,191.9z"/>
	<path class="st4" d="M426.9,177.5c1.6-2.6,3.9-5.6,6.4-5.6c1.8,0,3.1,1.4,3.1,2.6c0,1.1-0.7,2.1-1.7,2.6c-0.6,0.3-1.1,0.2-1.4-0.1
		c-0.7-0.8-1.4-1.1-2.2-1.1c-1.4,0-3.1,1.6-4.2,4.5v9.7c0,3.5,0.3,3.8,4.3,4.1v1.4h-12.1v-1.4c3.3-0.3,3.6-0.6,3.6-4.1v-10.9
		c0-3.5-0.3-3.7-3.3-4.1v-1.2c2.6-0.4,4.9-1.1,7.4-2.2v5.8H426.9z"/>
	<path class="st4" d="M453.7,195.6v-1.4c3.1-0.3,3.5-0.7,3.5-4.4V181c0-3.6-1.3-6-4.8-6c-2.1,0-4.2,1.3-5.8,2.7v12.4
		c0,3.6,0.3,3.8,3.4,4.1v1.4h-11.5v-1.4c3.6-0.4,3.9-0.6,3.9-4.1v-10.9c0-3.4-0.3-3.5-3.2-4.1v-1.2c2.5-0.5,5-1.1,7.3-2.2v4.2
		c1.1-0.8,2.2-1.6,3.5-2.5c1.5-1,2.9-1.6,4.4-1.6c4.2,0,6.8,2.9,6.8,8v10.2c0,3.6,0.3,3.8,3.3,4.1v1.4H453.7z"/>
	<path class="st4" d="M494,162.7c-4.1,0.3-4.5,0.7-4.5,5.1v19.7c0,6.8-1.1,10.4-4.5,13.6c-1.8,1.6-3.6,2.6-4.9,3.1l-0.7-1.5
		c3-1.5,4.5-3.9,5.1-6.9c0.5-2.5,0.6-5.6,0.6-10v-18c0-4.4-0.4-4.8-4.7-5.1v-1.5H494V162.7z"/>
	<path class="st4" d="M512.2,196.2c-0.8,0-1.9-0.5-2.5-1c-0.7-0.7-1-1.5-1.3-2.4c-2.1,1.4-4.6,3.4-6.2,3.4c-3.7,0-6.3-3.1-6.3-6.4
		c0-2.6,1.4-4.2,4.3-5.2c3.2-1.1,7-2.5,8.2-3.4v-1c0-3.8-1.8-6-4.4-6c-1.1,0-1.8,0.4-2.4,1.1c-0.7,0.7-1.2,1.8-1.6,3.5
		c-0.2,0.8-0.8,1.2-1.5,1.2c-1,0-2.3-1.1-2.3-2.3c0-0.8,0.7-1.4,1.7-2.1c1.5-1.1,4.9-3.1,7.9-3.7c1.6,0,3.2,0.5,4.3,1.4
		c1.8,1.5,2.4,3.7,2.4,6.4v9.8c0,2.4,1,3.2,1.8,3.2c0.6,0,1.4-0.3,1.9-0.6l0.5,1.4L512.2,196.2z M508.4,182.9
		c-1.1,0.6-3.6,1.7-4.8,2.2c-2.1,1-3.2,2-3.2,3.9c0,2.7,2.1,4.1,3.7,4.1c1.4-0.1,3.2-1,4.2-1.9V182.9z"/>
	<path class="st4" d="M537.1,195.7c-2.4-2.7-5.8-6.9-8.7-10.5c-0.7-0.9-1.2-1.2-1.6-1.2c-0.2,0-0.5,0.1-0.8,0.2v5.9
		c0,3.5,0.5,3.8,3.9,4.1v1.4H518v-1.4c3.5-0.3,3.9-0.7,3.9-4.1v-25c0-3.5-0.3-3.7-3.5-4.1v-1.2c2.5-0.3,5.5-1.2,7.6-1.8v24.9
		c1.6-0.3,2.5-1,3.3-1.8c1.2-1.2,2.7-3.2,3.7-4.6c1.1-1.6,0.9-2.1-1.6-2.3v-1.4l10.8-0.5v1.3c-3.6,0.6-4.8,1.2-6.8,3.1
		c-1.3,1.3-2.3,2.4-4.5,5c1.1,1.6,6.4,7.8,8.2,9.7c1.9,2,3.3,2.8,5.3,2.9v1.4L537.1,195.7z"/>
	<path class="st4" d="M568,183.6c0,8.5-6.2,12.6-11.5,12.6c-7.2,0-11.6-5.8-11.6-11.7c0-8.7,6.8-12.7,11.6-12.7
		C563.1,171.9,568,177.1,568,183.6z M549.9,182.8c0,6.7,2.9,11.6,7.2,11.6c3.3,0,6-2.4,6-9.7c0-6.2-2.5-11.2-7.1-11.2
		C552.7,173.6,549.9,176.9,549.9,182.8z"/>
	<path class="st4" d="M582,172.4c0.8-0.4,1.6-0.5,2.2-0.5c5.6,0,10.4,4.9,10.4,11.1c0,7.8-6.2,13.3-13.3,13.3
		c-2.2,0-4.9-0.5-7.8-1.9V165c0-3.3-0.1-3.6-3.5-3.9v-1.2c2.5-0.3,5.7-1.2,7.7-1.8v16.3L582,172.4z M577.7,189.4
		c0,0.8,0.1,1.3,0.3,1.8c0.3,1.1,1.9,2.9,4.7,3c4.4,0,7.2-3.7,7.2-9.9c0-6-3.7-9.5-8.1-9.5c-1.5,0-3.2,0.4-4.1,1V189.4z"/>
	<path class="st4" d="M612,178.7c-1-3.1-2.9-5.2-5.4-5.2c-2,0-3.4,1.6-3.4,3.6c0,2.4,2.1,3.6,4.5,4.6c4,1.6,6.7,3.5,6.7,7.2
		c0,4.8-4.5,7.3-8.7,7.3c-2.7,0-5.1-1-6.1-1.8c-0.4-0.7-0.8-4.3-0.8-6.2l1.4-0.3c1,3.5,3.3,6.5,6.5,6.5c2,0,3.7-1.5,3.7-3.7
		c0-2.3-1.5-3.6-4.2-4.8c-3.2-1.5-6.6-3.2-6.6-7.3c0-3.7,3.2-6.8,8-6.8c2.2,0,3.6,0.5,4.7,0.9c0.4,1.2,1,4.3,1.2,5.6L612,178.7z"/>
	<path class="st4" d="M637.2,191.1c-3.3,4.2-7,5.1-8.6,5.1c-6.5,0-10.3-5.3-10.3-11.2c0-3.6,1.3-6.9,3.5-9.2c2.2-2.4,5-3.9,7.8-3.9
		c4.4,0,7.9,3.9,7.9,8c0,1.1-0.3,1.5-1.2,1.7c-0.9,0.2-7.5,0.7-13.8,0.9c0.1,7.2,4.2,10.1,7.9,10.1c2.1,0,4.1-0.8,6-2.6L637.2,191.1
		z M622.7,180.3c3,0,5.9-0.1,8.9-0.2c1,0,1.3-0.3,1.3-1.1c0.1-2.7-1.7-5.3-4.6-5.3C625.8,173.8,623.5,176,622.7,180.3z"/>
	<path class="st4" d="M655.4,195.6v-1.4c3.1-0.3,3.5-0.7,3.5-4.4V181c0-3.6-1.3-6-4.8-6c-2.1,0-4.2,1.3-5.8,2.7v12.4
		c0,3.6,0.3,3.8,3.4,4.1v1.4h-11.5v-1.4c3.6-0.4,3.9-0.6,3.9-4.1v-10.9c0-3.4-0.3-3.5-3.2-4.1v-1.2c2.5-0.5,5-1.1,7.3-2.2v4.2
		c1.1-0.8,2.2-1.6,3.5-2.5c1.5-1,2.9-1.6,4.4-1.6c4.2,0,6.8,2.9,6.8,8v10.2c0,3.6,0.3,3.8,3.3,4.1v1.4H655.4z"/>
	<path class="st4" d="M276.4,248.4v-1.5c3.3-0.4,3.8-0.8,3.1-2.9c-0.7-2.1-1.7-4.9-2.9-8.1h-11.2c-0.8,2.4-1.6,4.6-2.3,6.8
		c-1.2,3.3-0.7,3.9,3.3,4.2v1.5h-11.5v-1.5c3.3-0.5,4.1-0.8,5.9-5.4l10.9-27.7l1.6-0.5c3.3,9.1,6.8,19.1,10.2,28.3
		c1.7,4.5,2.4,5,5.8,5.3v1.5H276.4z M271.2,220.1h-0.1c-1.7,4.5-3.4,9.1-5,13.5h9.7L271.2,220.1z"/>
	<path class="st4" d="M315.4,247.1c-2.4,0.4-5.1,1.1-7.8,1.9l-0.3-0.3v-3.7c-1.2,0.9-2.4,1.8-3.9,2.7c-1.5,0.9-2.6,1.3-4.1,1.3
		c-3.5,0-6.5-2.2-6.5-7.9v-10.3c0-2.9-0.2-3.1-3.2-3.7v-1.2c2.5-0.2,5-0.5,7.5-1c-0.2,1.6-0.2,4.1-0.2,7.7v7.1c0,4.7,2.3,6,4.6,6
		c1.9,0,3.9-0.8,5.7-2.5v-12.3c0-3-0.3-3.2-4.1-3.7v-1.2c2.7-0.2,5.5-0.4,8.3-1v17.6c0,2.6,0.4,3,2.4,3.1l1.5,0.1V247.1z"/>
	<path class="st4" d="M327.6,248.3c-0.9,0.5-1.7,0.7-2.2,0.7c-3.3,0-5.2-2.1-5.2-6.3v-15.4h-3.6l-0.2-0.5l1.4-1.5h2.4v-3.9l3.4-3.5
		l0.7,0.1v7.2h6c0.5,0.5,0.3,1.7-0.3,2.1h-5.6v13.6c0,4.3,1.7,5.1,3.1,5.1c1.3,0,2.5-0.5,3.3-0.9l0.5,1.4L327.6,248.3z"/>
	<path class="st4" d="M334.7,245.9c0-1.7,1.3-3,3-3s3,1.3,3,3c0,1.8-1.3,3.1-3,3.1S334.7,247.8,334.7,245.9z"/>
	<path class="st4" d="M384.5,240c-0.3,1.7-1.4,6.7-1.8,8.3h-25.4v-1.5c4.8-0.4,5.2-0.8,5.2-5.1v-21c0-4.8-0.4-4.9-4.5-5.3v-1.5h23.5
		c0,1.3,0.3,4.9,0.4,7.6l-1.5,0.3c-0.5-2.2-1-3.4-1.7-4.5c-0.7-1.1-2.2-1.5-6-1.5h-4c-1.6,0-1.7,0.1-1.7,1.7v12h5c4.8,0,5-0.4,5.7-4
		h1.5v10.1h-1.5c-0.7-3.8-1.1-4.1-5.6-4.1h-5v10c0,2.5,0.3,3.6,1.3,4.3c1,0.6,2.9,0.7,5.5,0.7c4,0,5.5-0.4,6.7-1.8
		c0.9-1.1,1.9-2.9,2.6-5L384.5,240z"/>
	<path class="st4" d="M386.7,248.4V247c3.3-0.3,3.8-0.6,3.8-4.1v-25c0-3.6-0.3-3.7-3.6-4v-1.3c2.7-0.3,6-1.2,7.8-1.8v32.1
		c0,3.5,0.4,3.8,3.8,4.1v1.4H386.7z"/>
	<path class="st4" d="M414.3,237.9h-12l0.7-2.9h12.1L414.3,237.9z"/>
	<path class="st4" d="M419.8,248.4V247c3.3-0.3,3.7-0.6,3.7-4.2v-10.9c0-3.3-0.2-3.5-3.3-4v-1.3c2.7-0.4,5.2-1.1,7.5-2.1v18.2
		c0,3.6,0.4,3.9,3.7,4.2v1.4H419.8z M422.6,217.4c0-1.6,1.3-2.7,2.7-2.7c1.5,0,2.6,1.2,2.6,2.7c0,1.4-1.2,2.7-2.7,2.7
		C423.8,220.1,422.6,218.8,422.6,217.4z"/>
	<path class="st4" d="M448.9,248.4V247c3.1-0.3,3.5-0.7,3.5-4.4v-8.8c0-3.6-1.3-6-4.8-6c-2.1,0-4.2,1.3-5.8,2.7v12.4
		c0,3.6,0.3,3.8,3.4,4.1v1.4h-11.5V247c3.6-0.4,3.9-0.6,3.9-4.1V232c0-3.4-0.3-3.5-3.2-4.1v-1.2c2.5-0.5,5-1.1,7.3-2.2v4.2
		c1.1-0.8,2.2-1.6,3.5-2.5c1.5-1,2.9-1.6,4.4-1.6c4.2,0,6.8,2.9,6.8,8v10.2c0,3.6,0.3,3.8,3.3,4.1v1.4H448.9z"/>
	<path class="st4" d="M476.2,231.5c-1-3.1-2.9-5.2-5.4-5.2c-2,0-3.4,1.6-3.4,3.6c0,2.4,2.1,3.6,4.5,4.6c4,1.6,6.7,3.5,6.7,7.2
		c0,4.8-4.5,7.3-8.7,7.3c-2.7,0-5.1-1-6.1-1.8c-0.4-0.7-0.8-4.3-0.8-6.2l1.4-0.3c1,3.5,3.3,6.5,6.5,6.5c2,0,3.7-1.5,3.7-3.7
		c0-2.3-1.5-3.6-4.2-4.8c-3.2-1.5-6.6-3.2-6.6-7.3c0-3.7,3.2-6.8,8-6.8c2.2,0,3.6,0.5,4.7,0.9c0.4,1.2,1,4.3,1.2,5.6L476.2,231.5z"
		/>
	<path class="st4" d="M492,248.3c-0.9,0.5-1.7,0.7-2.2,0.7c-3.3,0-5.2-2.1-5.2-6.3v-15.4h-3.6l-0.2-0.5l1.4-1.5h2.4v-3.9l3.4-3.5
		l0.7,0.1v7.2h6c0.5,0.5,0.3,1.7-0.3,2.1h-5.6v13.6c0,4.3,1.7,5.1,3.1,5.1c1.3,0,2.5-0.5,3.3-0.9l0.5,1.4L492,248.3z"/>
	<path class="st4" d="M514.6,249c-0.8,0-1.9-0.5-2.5-1c-0.7-0.7-1-1.5-1.3-2.4c-2.1,1.4-4.6,3.4-6.2,3.4c-3.7,0-6.3-3.1-6.3-6.4
		c0-2.6,1.4-4.2,4.3-5.2c3.2-1.1,7-2.5,8.2-3.4v-1c0-3.8-1.8-6-4.4-6c-1.1,0-1.8,0.4-2.4,1.1c-0.7,0.7-1.2,1.8-1.6,3.5
		c-0.2,0.8-0.8,1.2-1.5,1.2c-1,0-2.3-1.1-2.3-2.3c0-0.8,0.7-1.4,1.7-2.1c1.5-1.1,4.9-3.1,7.9-3.7c1.6,0,3.2,0.5,4.3,1.4
		c1.8,1.5,2.4,3.7,2.4,6.4v9.8c0,2.4,1,3.2,1.8,3.2c0.6,0,1.4-0.3,1.9-0.6l0.5,1.4L514.6,249z M510.7,235.7
		c-1.1,0.6-3.6,1.7-4.8,2.2c-2.1,1-3.2,2-3.2,3.9c0,2.7,2.1,4.1,3.7,4.1c1.4-0.1,3.2-1,4.2-1.9V235.7z"/>
	<path class="st4" d="M520.5,248.4V247c3.3-0.3,3.8-0.6,3.8-4.1v-25c0-3.6-0.3-3.7-3.6-4v-1.3c2.7-0.3,6-1.2,7.8-1.8v32.1
		c0,3.5,0.4,3.8,3.8,4.1v1.4H520.5z"/>
	<path class="st4" d="M534.1,248.4V247c3.3-0.3,3.8-0.6,3.8-4.1v-25c0-3.6-0.3-3.7-3.6-4v-1.3c2.7-0.3,6-1.2,7.8-1.8v32.1
		c0,3.5,0.4,3.8,3.8,4.1v1.4H534.1z"/>
	<path class="st4" d="M565.2,249c-0.8,0-1.9-0.5-2.5-1c-0.7-0.7-1-1.5-1.3-2.4c-2.1,1.4-4.6,3.4-6.2,3.4c-3.7,0-6.3-3.1-6.3-6.4
		c0-2.6,1.4-4.2,4.3-5.2c3.2-1.1,7-2.5,8.2-3.4v-1c0-3.8-1.8-6-4.4-6c-1.1,0-1.8,0.4-2.4,1.1c-0.7,0.7-1.2,1.8-1.6,3.5
		c-0.2,0.8-0.8,1.2-1.5,1.2c-1,0-2.3-1.1-2.3-2.3c0-0.8,0.7-1.4,1.7-2.1c1.5-1.1,4.9-3.1,7.9-3.7c1.6,0,3.2,0.5,4.3,1.4
		c1.8,1.5,2.4,3.7,2.4,6.4v9.8c0,2.4,1,3.2,1.8,3.2c0.6,0,1.4-0.3,1.9-0.6l0.5,1.4L565.2,249z M561.3,235.7
		c-1.1,0.6-3.6,1.7-4.8,2.2c-2.1,1-3.2,2-3.2,3.9c0,2.7,2.1,4.1,3.7,4.1c1.4-0.1,3.2-1,4.2-1.9V235.7z"/>
	<path class="st4" d="M581.1,248.3c-0.9,0.5-1.7,0.7-2.2,0.7c-3.3,0-5.2-2.1-5.2-6.3v-15.4h-3.6l-0.2-0.5l1.4-1.5h2.4v-3.9l3.4-3.5
		l0.7,0.1v7.2h6c0.5,0.5,0.3,1.7-0.3,2.1h-5.6v13.6c0,4.3,1.7,5.1,3.1,5.1c1.3,0,2.5-0.5,3.3-0.9l0.5,1.4L581.1,248.3z"/>
	<path class="st4" d="M605.7,227.2c2.6,2.2,4.2,5.5,4.2,9.2c0,8.3-6.1,12.6-11.5,12.6c-2.3,0-4.3-0.6-6.1-1.6l-2.1,2.9l-1.3-1.2
		l2-2.7c-2.7-2.3-4.2-5.7-4.2-9.1c0-8.7,6.9-12.6,11.8-12.6c2.2,0,4,0.5,5.8,1.5l1.9-2.7l1.4,1L605.7,227.2z M602.6,228.7
		c-1-1.4-2.7-2.3-4.6-2.3c-3.5,0-6.5,3.4-6.5,9.7c0,2.8,0.6,5.2,1.6,7L602.6,228.7z M594.2,244.7c1,1.5,2.6,2.6,4.8,2.6
		c3.3,0,6.3-2.9,6.3-10.2c0-2.5-0.5-4.8-1.6-6.7L594.2,244.7z"/>
	<path class="st4" d="M620.9,230.3c1.6-2.6,3.9-5.6,6.4-5.6c1.8,0,3.1,1.4,3.1,2.6c0,1.1-0.7,2.1-1.7,2.6c-0.6,0.3-1.1,0.2-1.4-0.1
		c-0.7-0.8-1.4-1.1-2.2-1.1c-1.4,0-3.1,1.6-4.2,4.5v9.7c0,3.5,0.3,3.8,4.3,4.1v1.4H613V247c3.3-0.3,3.6-0.6,3.6-4.1V232
		c0-3.5-0.3-3.7-3.3-4.1v-1.2c2.6-0.4,4.9-1.1,7.4-2.2v5.8H620.9z"/>
</g>
</svg>
